<mxfile host="app.diagrams.net" modified="2024-05-08T00:36:48.119Z" agent="Mozilla/5.0 (Windows NT 10.0; Win64; x64) AppleWebKit/537.36 (KHTML, like Gecko) Chrome/122.0.0.0 Whale/3.25.232.19 Safari/537.36" etag="fZ6Q-GAFQbSE_9luCWUL" version="24.3.1" type="github">
  <diagram name="페이지-1" id="qZsOzMXbOIzPQQeTr-IB">
    <mxGraphModel dx="803" dy="458" grid="1" gridSize="10" guides="1" tooltips="1" connect="1" arrows="1" fold="1" page="1" pageScale="1" pageWidth="827" pageHeight="1169" math="0" shadow="0">
      <root>
        <mxCell id="0" />
        <mxCell id="1" parent="0" />
        <mxCell id="FhMpsOIb1dNNcFFraurA-10" value="Alice" style="shape=umlLifeline;perimeter=lifelinePerimeter;whiteSpace=wrap;container=1;dropTarget=0;collapsible=0;recursiveResize=0;outlineConnect=0;portConstraint=eastwest;newEdgeStyle={&quot;edgeStyle&quot;:&quot;elbowEdgeStyle&quot;,&quot;elbow&quot;:&quot;vertical&quot;,&quot;curved&quot;:0,&quot;rounded&quot;:0};size=65;" vertex="1" parent="1">
          <mxGeometry x="30" y="140" width="150" height="376" as="geometry" />
        </mxCell>
        <mxCell id="FhMpsOIb1dNNcFFraurA-11" value="John" style="shape=umlLifeline;perimeter=lifelinePerimeter;whiteSpace=wrap;container=1;dropTarget=0;collapsible=0;recursiveResize=0;outlineConnect=0;portConstraint=eastwest;newEdgeStyle={&quot;edgeStyle&quot;:&quot;elbowEdgeStyle&quot;,&quot;elbow&quot;:&quot;vertical&quot;,&quot;curved&quot;:0,&quot;rounded&quot;:0};size=65;" vertex="1" parent="1">
          <mxGeometry x="276" y="140" width="150" height="376" as="geometry" />
        </mxCell>
        <mxCell id="FhMpsOIb1dNNcFFraurA-12" value="" style="points=[];perimeter=orthogonalPerimeter;outlineConnect=0;targetShapes=umlLifeline;portConstraint=eastwest;newEdgeStyle={&quot;edgeStyle&quot;:&quot;elbowEdgeStyle&quot;,&quot;elbow&quot;:&quot;vertical&quot;,&quot;curved&quot;:0,&quot;rounded&quot;:0}" vertex="1" parent="FhMpsOIb1dNNcFFraurA-11">
          <mxGeometry x="70" y="109" width="10" height="172" as="geometry" />
        </mxCell>
        <mxCell id="FhMpsOIb1dNNcFFraurA-13" value="" style="points=[];perimeter=orthogonalPerimeter;outlineConnect=0;targetShapes=umlLifeline;portConstraint=eastwest;newEdgeStyle={&quot;edgeStyle&quot;:&quot;elbowEdgeStyle&quot;,&quot;elbow&quot;:&quot;vertical&quot;,&quot;curved&quot;:0,&quot;rounded&quot;:0}" vertex="1" parent="FhMpsOIb1dNNcFFraurA-11">
          <mxGeometry x="75" y="163" width="10" height="54" as="geometry" />
        </mxCell>
        <mxCell id="FhMpsOIb1dNNcFFraurA-14" value="Hello John, how are you?" style="verticalAlign=bottom;endArrow=block;edgeStyle=elbowEdgeStyle;elbow=vertical;curved=0;rounded=0;" edge="1" parent="1" source="FhMpsOIb1dNNcFFraurA-10" target="FhMpsOIb1dNNcFFraurA-12">
          <mxGeometry relative="1" as="geometry">
            <Array as="points">
              <mxPoint x="238" y="249" />
            </Array>
          </mxGeometry>
        </mxCell>
        <mxCell id="FhMpsOIb1dNNcFFraurA-15" value="John, can you hear me?" style="verticalAlign=bottom;endArrow=block;edgeStyle=elbowEdgeStyle;elbow=vertical;curved=0;rounded=0;" edge="1" parent="1" source="FhMpsOIb1dNNcFFraurA-10" target="FhMpsOIb1dNNcFFraurA-12">
          <mxGeometry relative="1" as="geometry">
            <Array as="points">
              <mxPoint x="236" y="303" />
            </Array>
          </mxGeometry>
        </mxCell>
        <mxCell id="FhMpsOIb1dNNcFFraurA-16" value="Hi Alice, I can hear you!" style="verticalAlign=bottom;endArrow=block;edgeStyle=elbowEdgeStyle;elbow=vertical;curved=0;rounded=0;dashed=1;dashPattern=2 3;" edge="1" parent="1" source="FhMpsOIb1dNNcFFraurA-12" target="FhMpsOIb1dNNcFFraurA-10">
          <mxGeometry relative="1" as="geometry">
            <Array as="points">
              <mxPoint x="236" y="357" />
            </Array>
          </mxGeometry>
        </mxCell>
        <mxCell id="FhMpsOIb1dNNcFFraurA-17" value="I feel great!" style="verticalAlign=bottom;endArrow=block;edgeStyle=elbowEdgeStyle;elbow=vertical;curved=0;rounded=0;dashed=1;dashPattern=2 3;" edge="1" parent="1" source="FhMpsOIb1dNNcFFraurA-12" target="FhMpsOIb1dNNcFFraurA-10">
          <mxGeometry relative="1" as="geometry">
            <Array as="points">
              <mxPoint x="236" y="411" />
            </Array>
          </mxGeometry>
        </mxCell>
        <mxCell id="FhMpsOIb1dNNcFFraurA-18" value="Animal" style="swimlane;fontStyle=1;align=center;verticalAlign=top;childLayout=stackLayout;horizontal=1;startSize=27.8;horizontalStack=0;resizeParent=1;resizeParentMax=0;resizeLast=0;collapsible=0;marginBottom=0;" vertex="1" parent="1">
          <mxGeometry x="464" y="570" width="120" height="147.8" as="geometry" />
        </mxCell>
        <mxCell id="FhMpsOIb1dNNcFFraurA-19" value="+int age" style="text;strokeColor=none;fillColor=none;align=left;verticalAlign=top;spacingLeft=4;spacingRight=4;overflow=hidden;rotatable=0;points=[[0,0.5],[1,0.5]];portConstraint=eastwest;" vertex="1" parent="FhMpsOIb1dNNcFFraurA-18">
          <mxGeometry y="27.8" width="120" height="28" as="geometry" />
        </mxCell>
        <mxCell id="FhMpsOIb1dNNcFFraurA-20" value="+String gender" style="text;strokeColor=none;fillColor=none;align=left;verticalAlign=top;spacingLeft=4;spacingRight=4;overflow=hidden;rotatable=0;points=[[0,0.5],[1,0.5]];portConstraint=eastwest;" vertex="1" parent="FhMpsOIb1dNNcFFraurA-18">
          <mxGeometry y="55.8" width="120" height="28" as="geometry" />
        </mxCell>
        <mxCell id="FhMpsOIb1dNNcFFraurA-21" style="line;strokeWidth=1;fillColor=none;align=left;verticalAlign=middle;spacingTop=-1;spacingLeft=3;spacingRight=3;rotatable=0;labelPosition=right;points=[];portConstraint=eastwest;strokeColor=inherit;" vertex="1" parent="FhMpsOIb1dNNcFFraurA-18">
          <mxGeometry y="83.8" width="120" height="8" as="geometry" />
        </mxCell>
        <mxCell id="FhMpsOIb1dNNcFFraurA-22" value="+isMammal()" style="text;strokeColor=none;fillColor=none;align=left;verticalAlign=top;spacingLeft=4;spacingRight=4;overflow=hidden;rotatable=0;points=[[0,0.5],[1,0.5]];portConstraint=eastwest;" vertex="1" parent="FhMpsOIb1dNNcFFraurA-18">
          <mxGeometry y="91.8" width="120" height="28" as="geometry" />
        </mxCell>
        <mxCell id="FhMpsOIb1dNNcFFraurA-23" value="+mate()" style="text;strokeColor=none;fillColor=none;align=left;verticalAlign=top;spacingLeft=4;spacingRight=4;overflow=hidden;rotatable=0;points=[[0,0.5],[1,0.5]];portConstraint=eastwest;" vertex="1" parent="FhMpsOIb1dNNcFFraurA-18">
          <mxGeometry y="119.8" width="120" height="28" as="geometry" />
        </mxCell>
        <mxCell id="FhMpsOIb1dNNcFFraurA-24" value="Duck" style="swimlane;fontStyle=1;align=center;verticalAlign=top;childLayout=stackLayout;horizontal=1;startSize=29.149999618530273;horizontalStack=0;resizeParent=1;resizeParentMax=0;resizeLast=0;collapsible=0;marginBottom=0;" vertex="1" parent="1">
          <mxGeometry x="45" y="767" width="143" height="124.14999961853027" as="geometry" />
        </mxCell>
        <mxCell id="FhMpsOIb1dNNcFFraurA-25" value="+String beakColor" style="text;strokeColor=none;fillColor=none;align=left;verticalAlign=top;spacingLeft=4;spacingRight=4;overflow=hidden;rotatable=0;points=[[0,0.5],[1,0.5]];portConstraint=eastwest;" vertex="1" parent="FhMpsOIb1dNNcFFraurA-24">
          <mxGeometry y="29.149999618530273" width="143" height="29" as="geometry" />
        </mxCell>
        <mxCell id="FhMpsOIb1dNNcFFraurA-26" style="line;strokeWidth=1;fillColor=none;align=left;verticalAlign=middle;spacingTop=-1;spacingLeft=3;spacingRight=3;rotatable=0;labelPosition=right;points=[];portConstraint=eastwest;strokeColor=inherit;" vertex="1" parent="FhMpsOIb1dNNcFFraurA-24">
          <mxGeometry y="58.14999961853027" width="143" height="8" as="geometry" />
        </mxCell>
        <mxCell id="FhMpsOIb1dNNcFFraurA-27" value="+swim()" style="text;strokeColor=none;fillColor=none;align=left;verticalAlign=top;spacingLeft=4;spacingRight=4;overflow=hidden;rotatable=0;points=[[0,0.5],[1,0.5]];portConstraint=eastwest;" vertex="1" parent="FhMpsOIb1dNNcFFraurA-24">
          <mxGeometry y="66.14999961853027" width="143" height="29" as="geometry" />
        </mxCell>
        <mxCell id="FhMpsOIb1dNNcFFraurA-28" value="+quack()" style="text;strokeColor=none;fillColor=none;align=left;verticalAlign=top;spacingLeft=4;spacingRight=4;overflow=hidden;rotatable=0;points=[[0,0.5],[1,0.5]];portConstraint=eastwest;" vertex="1" parent="FhMpsOIb1dNNcFFraurA-24">
          <mxGeometry y="95.14999961853027" width="143" height="29" as="geometry" />
        </mxCell>
        <mxCell id="FhMpsOIb1dNNcFFraurA-29" value="Fish" style="swimlane;fontStyle=1;align=center;verticalAlign=top;childLayout=stackLayout;horizontal=1;startSize=31.399998982747395;horizontalStack=0;resizeParent=1;resizeParentMax=0;resizeLast=0;collapsible=0;marginBottom=0;" vertex="1" parent="1">
          <mxGeometry x="383" y="778" width="118" height="101.39999898274739" as="geometry" />
        </mxCell>
        <mxCell id="FhMpsOIb1dNNcFFraurA-30" value="-int sizeInFeet" style="text;strokeColor=none;fillColor=none;align=left;verticalAlign=top;spacingLeft=4;spacingRight=4;overflow=hidden;rotatable=0;points=[[0,0.5],[1,0.5]];portConstraint=eastwest;" vertex="1" parent="FhMpsOIb1dNNcFFraurA-29">
          <mxGeometry y="31.399998982747395" width="118" height="31" as="geometry" />
        </mxCell>
        <mxCell id="FhMpsOIb1dNNcFFraurA-31" style="line;strokeWidth=1;fillColor=none;align=left;verticalAlign=middle;spacingTop=-1;spacingLeft=3;spacingRight=3;rotatable=0;labelPosition=right;points=[];portConstraint=eastwest;strokeColor=inherit;" vertex="1" parent="FhMpsOIb1dNNcFFraurA-29">
          <mxGeometry y="62.39999898274739" width="118" height="8" as="geometry" />
        </mxCell>
        <mxCell id="FhMpsOIb1dNNcFFraurA-32" value="-canEat()" style="text;strokeColor=none;fillColor=none;align=left;verticalAlign=top;spacingLeft=4;spacingRight=4;overflow=hidden;rotatable=0;points=[[0,0.5],[1,0.5]];portConstraint=eastwest;" vertex="1" parent="FhMpsOIb1dNNcFFraurA-29">
          <mxGeometry y="70.39999898274739" width="118" height="31" as="geometry" />
        </mxCell>
        <mxCell id="FhMpsOIb1dNNcFFraurA-33" value="Zebra" style="swimlane;fontStyle=1;align=center;verticalAlign=top;childLayout=stackLayout;horizontal=1;startSize=31.399998982747395;horizontalStack=0;resizeParent=1;resizeParentMax=0;resizeLast=0;collapsible=0;marginBottom=0;" vertex="1" parent="1">
          <mxGeometry x="551" y="778" width="109" height="101.39999898274739" as="geometry" />
        </mxCell>
        <mxCell id="FhMpsOIb1dNNcFFraurA-34" value="+bool is_wild" style="text;strokeColor=none;fillColor=none;align=left;verticalAlign=top;spacingLeft=4;spacingRight=4;overflow=hidden;rotatable=0;points=[[0,0.5],[1,0.5]];portConstraint=eastwest;" vertex="1" parent="FhMpsOIb1dNNcFFraurA-33">
          <mxGeometry y="31.399998982747395" width="109" height="31" as="geometry" />
        </mxCell>
        <mxCell id="FhMpsOIb1dNNcFFraurA-35" style="line;strokeWidth=1;fillColor=none;align=left;verticalAlign=middle;spacingTop=-1;spacingLeft=3;spacingRight=3;rotatable=0;labelPosition=right;points=[];portConstraint=eastwest;strokeColor=inherit;" vertex="1" parent="FhMpsOIb1dNNcFFraurA-33">
          <mxGeometry y="62.39999898274739" width="109" height="8" as="geometry" />
        </mxCell>
        <mxCell id="FhMpsOIb1dNNcFFraurA-36" value="+run()" style="text;strokeColor=none;fillColor=none;align=left;verticalAlign=top;spacingLeft=4;spacingRight=4;overflow=hidden;rotatable=0;points=[[0,0.5],[1,0.5]];portConstraint=eastwest;" vertex="1" parent="FhMpsOIb1dNNcFFraurA-33">
          <mxGeometry y="70.39999898274739" width="109" height="31" as="geometry" />
        </mxCell>
        <mxCell id="FhMpsOIb1dNNcFFraurA-37" value="From Duck till Zebra" style="align=left;spacingLeft=4;" vertex="1" parent="1">
          <mxGeometry x="252" y="627" width="162" height="33" as="geometry" />
        </mxCell>
        <mxCell id="FhMpsOIb1dNNcFFraurA-38" value="can fly&#xa;can swim&#xa;can dive&#xa;can help in debugging" style="align=left;spacingLeft=4;" vertex="1" parent="1">
          <mxGeometry x="30" y="603" width="172" height="81" as="geometry" />
        </mxCell>
        <mxCell id="FhMpsOIb1dNNcFFraurA-39" value="" style="curved=1;startArrow=block;startSize=16;startFill=0;endArrow=none;exitX=-0.0037499745686848957;exitY=0.6974123559003309;entryX=0.9937772950926027;entryY=0.25421441603163114;rounded=0;" edge="1" parent="1" source="FhMpsOIb1dNNcFFraurA-18" target="FhMpsOIb1dNNcFFraurA-24">
          <mxGeometry relative="1" as="geometry">
            <Array as="points">
              <mxPoint x="320" y="742" />
            </Array>
          </mxGeometry>
        </mxCell>
        <mxCell id="FhMpsOIb1dNNcFFraurA-40" value="" style="curved=1;startArrow=block;startSize=16;startFill=0;endArrow=none;exitX=-0.0037499745686848957;exitY=0.9928407061683624;entryX=0.49955641213109936;entryY=0.00196079179352405;rounded=0;" edge="1" parent="1" source="FhMpsOIb1dNNcFFraurA-18" target="FhMpsOIb1dNNcFFraurA-29">
          <mxGeometry relative="1" as="geometry">
            <Array as="points">
              <mxPoint x="442" y="742" />
            </Array>
          </mxGeometry>
        </mxCell>
        <mxCell id="FhMpsOIb1dNNcFFraurA-41" value="" style="curved=1;startArrow=block;startSize=16;startFill=0;endArrow=none;exitX=0.9974609375;exitY=0.9928407061683624;entryX=0.49814365981915676;entryY=0.00196079179352405;rounded=0;" edge="1" parent="1" source="FhMpsOIb1dNNcFFraurA-18" target="FhMpsOIb1dNNcFFraurA-33">
          <mxGeometry relative="1" as="geometry">
            <Array as="points">
              <mxPoint x="605" y="742" />
            </Array>
          </mxGeometry>
        </mxCell>
        <mxCell id="FhMpsOIb1dNNcFFraurA-42" value="" style="curved=1;dashed=1;dashPattern=2 3;startArrow=none;endArrow=none;exitX=0.49894621205884354;exitY=1.0024690981264468;entryX=0.49523600331553214;entryY=0;rounded=0;" edge="1" parent="1" source="FhMpsOIb1dNNcFFraurA-38" target="FhMpsOIb1dNNcFFraurA-24">
          <mxGeometry relative="1" as="geometry">
            <Array as="points" />
          </mxGeometry>
        </mxCell>
        <mxCell id="FhMpsOIb1dNNcFFraurA-43" value="" style="ellipse;fillColor=strokeColor;" vertex="1" parent="1">
          <mxGeometry x="30" y="961" width="14" height="14" as="geometry" />
        </mxCell>
        <mxCell id="FhMpsOIb1dNNcFFraurA-44" value="A" style="rounded=1;absoluteArcSize=1;arcSize=14;whiteSpace=wrap;strokeWidth=2;" vertex="1" parent="1">
          <mxGeometry x="94" y="952" width="26" height="33" as="geometry" />
        </mxCell>
        <mxCell id="FhMpsOIb1dNNcFFraurA-45" value="B" style="swimlane;fontStyle=1;align=center;verticalAlign=middle;startSize=25;container=0;collapsible=0;rounded=1;arcSize=14;dropTarget=0;" vertex="1" parent="1">
          <mxGeometry x="170" y="916" width="147" height="105" as="geometry" />
        </mxCell>
        <mxCell id="FhMpsOIb1dNNcFFraurA-46" value="a" style="rounded=1;absoluteArcSize=1;arcSize=14;whiteSpace=wrap;strokeWidth=2;" vertex="1" parent="FhMpsOIb1dNNcFFraurA-45">
          <mxGeometry x="33" y="43" width="23" height="33" as="geometry" />
        </mxCell>
        <mxCell id="FhMpsOIb1dNNcFFraurA-47" value="b" style="rounded=1;absoluteArcSize=1;arcSize=14;whiteSpace=wrap;strokeWidth=2;" vertex="1" parent="FhMpsOIb1dNNcFFraurA-45">
          <mxGeometry x="106" y="43" width="24" height="33" as="geometry" />
        </mxCell>
        <mxCell id="FhMpsOIb1dNNcFFraurA-48" value="" style="curved=1;startArrow=none;;exitX=1.017934799194336;exitY=0.5060606291799834;entryX=0.01718751589457194;entryY=0.5060606291799834;rounded=0;" edge="1" parent="FhMpsOIb1dNNcFFraurA-45" source="FhMpsOIb1dNNcFFraurA-46" target="FhMpsOIb1dNNcFFraurA-47">
          <mxGeometry relative="1" as="geometry">
            <Array as="points" />
          </mxGeometry>
        </mxCell>
        <mxCell id="FhMpsOIb1dNNcFFraurA-49" value="C" style="rounded=1;absoluteArcSize=1;arcSize=14;whiteSpace=wrap;strokeWidth=2;" vertex="1" parent="1">
          <mxGeometry x="368" y="910" width="25" height="33" as="geometry" />
        </mxCell>
        <mxCell id="FhMpsOIb1dNNcFFraurA-50" value="D" style="rounded=1;absoluteArcSize=1;arcSize=14;whiteSpace=wrap;strokeWidth=2;" vertex="1" parent="1">
          <mxGeometry x="368" y="993" width="25" height="33" as="geometry" />
        </mxCell>
        <mxCell id="FhMpsOIb1dNNcFFraurA-51" value="" style="curved=1;startArrow=none;;exitX=1;exitY=0.528571537562779;entryX=0;entryY=0.4969697432084517;rounded=0;" edge="1" parent="1" source="FhMpsOIb1dNNcFFraurA-43" target="FhMpsOIb1dNNcFFraurA-44">
          <mxGeometry relative="1" as="geometry">
            <Array as="points" />
          </mxGeometry>
        </mxCell>
        <mxCell id="FhMpsOIb1dNNcFFraurA-52" value="" style="curved=1;startArrow=none;;exitX=1.0076923370361328;exitY=0.4969697432084517;entryX=0.0013605494077513819;entryY=0.4990476335797991;rounded=0;" edge="1" parent="1" source="FhMpsOIb1dNNcFFraurA-44" target="FhMpsOIb1dNNcFFraurA-45">
          <mxGeometry relative="1" as="geometry">
            <Array as="points" />
          </mxGeometry>
        </mxCell>
        <mxCell id="FhMpsOIb1dNNcFFraurA-53" value="" style="curved=1;startArrow=none;;exitX=1.003656426254584;exitY=0.2025300625622013;entryX=-0.014250221252441407;entryY=0.5060606291799834;rounded=0;" edge="1" parent="1" source="FhMpsOIb1dNNcFFraurA-45" target="FhMpsOIb1dNNcFFraurA-49">
          <mxGeometry relative="1" as="geometry">
            <Array as="points">
              <mxPoint x="343" y="927" />
            </Array>
          </mxGeometry>
        </mxCell>
        <mxCell id="FhMpsOIb1dNNcFFraurA-54" value="" style="curved=1;startArrow=none;;exitX=1.003656426254584;exitY=0.7955652045973969;entryX=-0.018500213623046876;entryY=0.5181818875399503;rounded=0;" edge="1" parent="1" source="FhMpsOIb1dNNcFFraurA-45" target="FhMpsOIb1dNNcFFraurA-50">
          <mxGeometry relative="1" as="geometry">
            <Array as="points">
              <mxPoint x="343" y="1010" />
            </Array>
          </mxGeometry>
        </mxCell>
      </root>
    </mxGraphModel>
  </diagram>
</mxfile>
